<svg width="256" height="209" viewBox="0 0 256 209" fill="none" xmlns="http://www.w3.org/2000/svg">
<path d="M46.655 6.13506C46.3614 5.01588 45.8069 4.23599 44.8828 3.76749C44.3258 3.45096 43.3585 3.37744 43.075 2.89887C42.6015 2.25569 41.8647 2.41516 41.4849 2.08598C40.8748 1.52381 40.3557 1.73899 39.7682 1.99467C39.3175 2.16934 38.7327 1.96168 38.8872 1.13118C38.5048 1.26534 38.1225 1.39953 37.7123 1.64257C37.768 1.42483 37.687 1.28806 37.7553 1.24756C38.7125 0.680461 39.7102 0.181751 40.8368 0.992089C40.9862 1.08831 41.0672 1.22504 41.1356 1.18454C43.8474 1.24046 44.1588 1.61017 46.9312 3.01566C47.706 3.38792 48.5517 3.25633 49.1745 3.99572C50.0682 5.03645 51.633 5.49487 52.3342 6.83436C52.4152 6.9711 52.7014 6.9863 52.8507 7.08253C53.6508 7.80927 54.8484 8.11577 55.2509 9.26279C56.3118 9.65029 56.77 10.5795 57.5296 11.2379C58.56 12.1977 59.1929 13.5776 60.6209 14.1171C60.8387 14.1728 60.9045 14.5956 61.0943 14.7603C61.5273 15.3351 61.7273 16.1403 62.5704 16.472C63.1958 16.7481 63.1628 17.7836 64.1148 18.1433C64.6996 18.3509 64.8312 19.1966 65.4009 19.6904C66.3225 20.6223 67.2162 21.663 68.2745 22.5138C68.9125 22.9671 68.1884 23.3038 68.0086 23.7798C68.4719 23.7824 68.9758 23.8533 69.6569 23.9116C69.7784 24.1167 69.9936 24.6358 70.2645 24.9371C70.6038 25.198 71.1355 25.16 71.5026 25.312C72.0875 25.5197 72.604 25.7678 73.161 26.0844C73.3104 26.1806 73.2952 26.4667 73.3357 26.5351C74.2751 26.7175 75.2144 26.8999 76.1943 27.1506C76.1107 27.4772 76.1639 27.7228 76.0676 27.8722C75.9714 28.0216 75.7663 28.1431 75.5738 28.4419C75.941 28.5938 76.0903 28.69 76.3081 28.7458C76.5258 28.8015 76.7436 28.8572 77.0297 28.8724C76.9056 29.1307 76.822 29.4573 76.6701 29.8244C77.3233 29.9916 77.7537 31.0298 78.8071 30.3133C78.5362 30.012 78.1285 29.7917 77.9665 29.5182C77.8323 29.1358 77.9438 28.7003 77.9742 28.1281C78.3413 28.2801 78.8452 28.351 79.144 28.5434C80.0529 29.2981 81.0733 29.6172 82.1899 29.7869C83.0887 29.9009 83.9319 30.2327 84.4332 30.767C84.6383 30.6455 84.8029 30.4556 85.008 30.3341C85.4535 31.0861 86.1904 30.9266 86.8715 30.9849C87.0487 30.9723 87.2943 30.9191 87.5121 30.9748C88.6945 31.5674 89.9478 31.6561 91.1885 31.5676C92.0063 31.5449 92.6191 31.6437 93.0089 32.6135C93.0646 32.3958 93.0925 32.2869 93.1204 32.178C93.3964 31.5526 94.1433 32.0338 94.432 31.5856C95.8752 31.8389 97.3236 31.1655 98.6275 31.9632C99.1618 31.4619 99.6682 31.0695 100.408 30.4467C100.337 30.9506 100.349 31.1278 100.294 31.3455C100.772 31.062 101.395 31.8014 101.755 30.8494C101.907 30.4823 102.727 29.9962 103.19 29.9987C103.98 30.0849 104.378 29.6646 104.925 29.3406C106.839 28.2064 108.943 27.2368 110.627 25.8696C113.256 23.7581 116.208 22.1936 119.039 20.424C119.791 19.9784 120.219 18.9859 121.093 18.7454C121.475 18.6112 121.91 18.7227 122.252 18.5201C122.594 18.3176 122.706 17.8821 123.007 17.6112C123.569 17.001 124.508 17.1834 125.124 16.8189C126.314 16.0214 127.719 15.743 128.922 15.1227C129.059 15.0417 129.155 14.8923 129.264 14.9202C130.993 15.1887 132.525 14.1887 134.216 13.9255C137.176 13.4649 140.068 13.0448 142.985 12.9792C146.079 12.901 149.31 12.7417 152.272 14.3118C152.68 14.5321 153.199 14.3169 153.634 14.4284C154.042 14.6487 154.326 15.1273 154.693 15.2792C155.536 15.611 156.475 15.7934 157.632 16.0315C157.845 17.0139 158.782 17.6596 159.87 17.9383C161.326 18.3688 162.068 19.7767 163.62 20.0578C164.777 20.2959 165.823 20.9695 166.8 21.6837C167.818 22.4661 168.932 23.0992 169.95 23.8817C170.628 24.4034 171.499 24.6262 172.026 25.515C172.148 25.7201 173.077 25.2619 173.277 26.0671C173.411 26.4494 173.9 26.8065 174.267 26.9584C175.069 27.2218 175.297 27.9181 175.621 28.4651C176.216 29.3134 176.469 30.3642 177.543 30.9289C177.801 31.053 178.044 31.4632 178.069 31.8177C178.135 32.2405 177.819 32.7975 178.581 32.9926C178.799 33.0483 178.7 33.661 178.902 34.0029C179.819 35.8614 180.135 37.7985 179.634 39.7582C179.494 40.3026 179.423 40.8064 179.747 41.3534C180.084 42.0776 180.325 42.9511 180.198 43.6727C180.043 44.5032 180.654 45.0654 180.499 45.8959C180.456 46.2908 180.739 46.7694 180.615 47.0277C179.98 48.6051 180.557 50.2028 180.453 51.7423C181.063 52.3044 179.916 52.7069 180.243 52.7905C180.936 53.026 180.607 53.4058 180.524 53.7324C180.412 54.1679 180.124 54.6161 179.875 55.1326C180.174 55.325 180.513 55.5859 181.179 55.9303C180.999 56.4063 180.574 56.9354 180.572 57.3988C180.663 58.1761 179.759 58.9888 180.708 59.8118C180.857 59.908 180.581 60.5334 180.47 60.9689C180.414 61.1867 180.181 61.417 180.222 61.4854C181.24 62.2679 180.252 63.4072 180.847 64.2555C180.928 64.3922 181.009 64.529 180.981 64.6378C180.457 65.7797 180.928 66.8863 180.976 68.0586C181.08 69.0132 180.829 69.993 180.715 70.8919C180.224 70.9982 179.869 71.0235 179.446 71.0893C180.208 71.2843 180.753 71.4236 181.188 71.5351C181.411 73.1581 181.935 74.5102 181.081 76.0319C181.464 75.8977 181.709 75.8446 182.132 75.7788C182.061 76.2827 181.841 76.6903 181.975 77.0726C182.122 77.6322 182.692 78.126 182.456 78.8198C182.428 78.9286 182.904 79.1084 183.094 79.273C183.244 79.3693 183.378 79.7516 183.378 79.7516C182.489 80.2782 183.385 80.8556 183.314 81.3594C183.231 81.6861 183.147 82.0127 182.967 82.4887C183.623 82.1925 184.099 82.3723 184.519 82.7699C184.79 83.0712 185.279 83.4282 185.223 83.646C185.137 84.436 185.408 84.7373 186.074 85.0817C186.482 85.302 186.709 85.9983 187.033 86.5453C187.168 86.9276 186.008 87.1529 186.755 87.634C187.312 87.9506 187.479 87.2973 187.59 86.8618C188.773 87.4544 186.998 88.0442 187.826 88.6621C188.165 88.9229 188.188 89.7408 188.403 90.2599C189.466 90.184 188.968 89.1863 189.406 88.8344C189.816 88.5914 190.469 88.7585 190.467 89.2219C190.492 89.5764 190.449 89.9714 190.94 89.8651C191.049 89.8929 191.107 89.2118 191.555 89.5005C191.854 89.693 192.084 89.9259 192.315 90.1589C193.305 91.0502 194.459 91.7517 195.781 91.7999C196.748 91.8734 197.812 91.7975 198.807 91.7622C199.802 91.7268 200.865 91.6509 201.873 91.7928C202.445 91.8232 203.043 92.2082 203.559 92.4563C203.727 91.8031 204.137 91.56 204.886 91.5778C206.494 91.6413 208.104 91.2413 209.684 91.4136C210.869 91.5429 211.973 91.5354 213.146 91.4873C214.318 91.4393 215.435 91.6091 216.62 91.7383C216.728 91.7662 216.878 91.8624 216.987 91.8902C216.356 92.5409 215.794 93.1511 215.123 93.7334C215.163 93.8018 215.204 93.8701 215.244 93.9385C215.558 93.8448 215.804 93.7917 216.078 93.6297C216.283 93.5081 216.475 93.2094 216.64 93.0195C216.976 93.7437 218.207 93.0145 218.255 94.1869C218.939 93.7818 219.486 93.4578 220.374 92.9312C219.258 92.7614 218.359 92.6474 217.392 92.5739C217.67 91.4852 218.716 92.1588 219.331 91.7942C221.03 92.635 222.929 91.7869 224.74 92.1922C225.023 92.6707 225.347 93.2177 225.712 93.833C226.054 93.6305 226.395 93.4279 226.806 93.1849C226.912 93.6761 226.937 94.0306 227.044 94.5218C227.494 94.3471 227.877 94.213 228.287 93.9699C228.707 94.3675 229.059 94.8056 229.616 95.1221C229.915 95.3146 230.447 95.2766 230.786 95.5374C231.125 95.7983 231.231 96.2895 231.434 96.6313C231.474 96.6997 231.515 96.7681 231.583 96.7276C233.067 97.0492 234.179 98.1457 235.318 99.1333C235.29 99.2421 235.194 99.3915 235.247 99.6371C235.232 99.9232 235.325 100.237 235.419 100.551C235.692 100.389 235.994 100.118 236.336 99.9157C237.948 101.546 237.948 101.546 238.052 102.501C238.829 102.41 239.361 102.372 240.025 103.18C241.283 104.836 242.774 106.261 243.827 108.039C244.07 108.449 244.888 108.427 244.584 109.161C245.47 109.098 244.784 109.966 245.192 110.186C245.708 110.434 246.362 110.602 245.88 111.349C246.41 111.774 246.967 112.09 247.496 112.516C247.425 113.02 246.931 113.589 247.883 113.949C248.25 114.101 248.478 114.797 247.822 115.094C247.822 115.094 247.875 115.339 247.984 115.367C248.774 115.453 247.855 116.552 248.741 116.489C248.918 116.476 249.124 116.355 249.192 116.314C249.053 116.858 248.885 117.512 248.622 118.314C249.318 118.086 249.701 117.952 250.357 117.656C250.177 118.132 250.134 118.527 249.901 118.758C249.463 119.109 249.625 119.383 249.923 119.575C250.399 119.755 250.551 119.388 250.594 118.993C250.554 118.925 250.622 118.884 250.65 118.775C251.506 119.284 250.767 119.907 250.832 120.33C252.326 121.292 252.959 122.672 253.25 124.255C253.475 125.414 254.096 126.617 253.366 127.881C253.27 128.03 254.169 128.144 253.743 128.673C254.03 128.688 254.384 128.663 254.779 128.706C254.531 129.223 254.242 129.671 253.994 130.187C254.293 130.38 254.7 130.6 254.971 130.901C255.052 131.038 254.559 131.608 254.599 131.676C255.576 132.39 255.108 133.314 254.885 134.185C254.594 135.097 254.725 135.943 254.857 136.788C253.707 137.654 254.479 138.49 255.209 139.72C254.325 139.32 253.877 139.032 253.401 138.852C253.345 139.07 253.262 139.396 253.178 139.723C253.532 139.698 253.859 139.781 254.145 139.796C254.198 140.042 254.348 140.138 254.32 140.247C254.094 141.581 253.76 142.888 253.712 144.21C253.681 144.782 252.836 144.913 253.172 145.638C253.294 145.843 252.744 146.63 252.334 146.873C251.638 147.101 251.582 147.319 251.564 148.068C251.547 148.818 251.093 149.456 250.858 150.149C250.123 152.34 250.11 154.656 248.9 156.667C249.107 158.576 247.71 159.958 247.264 161.7C246.93 163.007 245.603 163.885 245.418 165.288C245.39 165.397 245.116 165.559 244.871 165.612C244.106 165.88 243.79 166.437 243.703 167.227C243.341 168.643 242.313 169.714 241.353 170.744C240.53 171.694 239.978 172.944 238.626 173.468C238.183 174.747 236.912 175.408 236.347 176.481C235.962 177.079 235.514 176.79 235.281 177.02C234.843 177.372 234.567 177.998 234.21 178.486C233.716 179.056 233.372 179.722 232.648 180.059C232.129 180.274 231.392 180.433 231.278 181.332C231.25 181.441 230.746 181.37 230.541 181.492C230.295 181.545 229.953 181.747 229.926 181.856C229.536 183.38 228.923 183.282 228.444 183.565C227.788 183.861 227.376 184.568 226.732 185.041C226.021 185.555 225.188 185.864 224.476 186.378C223.628 186.973 222.428 187.13 222.013 188.3C220.802 187.816 220.359 189.094 219.567 189.472C218.911 189.768 218.106 189.968 217.462 190.441C217.093 190.753 216.358 190.449 215.892 190.91C215.454 191.261 214.867 191.517 214.388 191.801C214.019 192.112 213.312 191.699 213.117 192.461C213.158 192.53 212.449 192.58 212.191 192.456C211.715 192.276 211.375 192.016 210.927 191.727C210.937 192.368 210.866 192.871 210.823 193.266C209.99 193.575 209.294 193.803 208.61 194.208C207.476 194.788 206.476 195.75 205.22 196.125C203.445 196.714 201.994 197.851 200.259 198.509C198.661 199.087 197.157 199.978 195.479 200.418C195.342 200.499 195.233 200.471 195.056 200.484C194.552 200.413 194.091 199.947 193.8 200.859C193.744 201.076 192.845 200.962 192.544 201.233C191.969 201.666 191.22 201.648 190.592 201.836C189.336 202.21 188.067 202.408 186.892 202.919C185.717 203.43 184.408 203.559 183.274 204.139C182.481 204.516 181.486 204.552 180.544 204.833C178.934 205.233 177.308 205.919 175.726 206.21C172.275 206.777 168.917 207.658 165.441 207.87C163.846 207.984 162.142 208.07 160.491 208.401C159.399 208.586 158.323 208.485 157.288 208.452C153.826 208.378 150.292 209.271 146.833 208.734C143.245 209.382 139.667 208.177 136.054 208.47C134.996 207.619 133.712 208.103 132.596 207.933C131.438 207.695 130.281 207.457 129.096 207.328C126.521 207.191 124.101 206.223 121.569 205.691C120.561 205.55 119.594 205.476 118.85 204.532C118.766 204.858 118.67 205.008 118.614 205.225C114.477 204.167 110.352 203.285 106.271 202.009C104.162 201.411 102.052 200.813 99.9712 200.107C96.7202 198.985 93.5249 197.645 90.3296 196.305C84.7416 193.889 79.5943 190.658 74.5432 187.277C70.8771 184.831 67.4717 182.046 64.0664 179.26C60.8509 176.639 57.7317 173.869 54.653 171.167C53.5137 170.18 52.5111 169.111 51.5085 168.042C50.5869 167.111 49.7337 166.138 48.8527 165.275C47.9716 164.411 47.2956 163.426 46.3462 162.603C45.6271 162.013 45.3057 161.003 44.4777 160.385C43.6498 159.767 43.2195 158.729 42.4599 158.071C41.7409 157.481 41.351 156.511 40.399 156.151C39.6572 154.743 38.2723 153.809 37.3659 152.591C36.3507 151.345 35.1709 150.289 34.1278 149.152C33.1252 148.084 32.3151 146.716 30.9554 146.136C30.039 144.278 28.3553 143.151 27.1375 141.563C25.8387 139.839 24.2386 138.385 23.2133 136.499C21.841 135.742 21.6588 134.187 20.6967 133.187C18.5827 131.022 17.3853 128.221 15.8181 125.732C14.251 123.243 12.7801 120.605 11.2814 118.075C10.7143 117.118 10.3523 116.039 10.0308 115.029C9.60046 113.991 8.58266 113.208 8.78026 111.983C7.85868 111.051 7.93475 109.62 7.28664 108.526C6.88158 107.843 6.46386 106.982 6.48165 106.232C6.36783 104.637 5.5577 103.27 5.23879 101.796C4.91988 100.323 4.80606 98.7274 4.13265 97.279C4.53022 96.8587 3.66179 96.1725 4.45435 95.7953C4.52271 95.7548 4.49742 95.4003 4.4164 95.2636C3.267 93.6354 3.48238 91.6604 3.09767 89.7639C2.64715 87.4446 2.29287 84.9758 2.01961 82.6438C1.70839 79.7801 0.797099 76.9948 1.08598 74.0526C1.28615 72.3638 0.736839 70.6572 0.610383 68.8848C0.468707 67.3985 0.749882 65.8463 0.648712 64.4284C0.653851 63.5017 1.5452 62.5117 0.555248 61.6204C0.669262 60.7215 0.783284 59.8227 0.897298 58.9238C0.970805 57.9566 0.975945 57.0299 0.981077 56.1032C0.877546 52.6546 1.49562 49.3326 2.29094 45.998C2.59741 44.8004 2.53675 43.4508 2.95209 42.2811C4.25384 38.5541 5.29734 34.703 7.03459 31.0874C7.53095 30.0544 8.13618 29.0492 8.78192 28.1124C9.71634 26.7275 10.2836 25.1906 11.3953 23.793C13.2337 21.5954 14.9633 19.3699 17.1536 17.6103C18.564 16.4052 20.015 15.2684 21.4254 14.0633C23.0004 12.6683 24.7501 11.724 26.5277 10.6708C27.8266 9.90118 28.8269 8.9391 29.7461 7.84028C30.1436 7.42 30.6627 7.20483 31.1008 6.85292C31.4021 6.58201 31.7034 6.3111 32.0731 5.99969C32.8809 5.33636 33.5671 4.46795 34.7521 4.59719C34.9699 4.6529 35.1928 3.78191 35.5472 3.75662C36.3524 3.55666 37.2412 3.03006 38.1501 3.78467C38.4894 4.04549 39.0059 4.29367 39.4414 4.40512C41.0062 4.86353 42.5025 5.36246 44.0673 5.82088C44.285 5.8766 44.5028 5.93235 44.5712 5.89184C45.4068 5.11964 45.9764 5.61341 46.655 6.13506ZM154.183 178.424C155.163 178.675 155.692 179.1 156.075 178.966C157.495 178.402 158.994 178.437 160.453 178.405C161.87 178.303 163.344 177.984 164.79 177.774C166.236 177.564 167.79 177.382 169.102 176.79C171.097 175.792 173.293 175.6 175.326 175.134C177.25 174.641 179.121 173.902 181.208 173.681C181.917 173.631 182.641 173.294 183.365 172.957C184.363 172.459 185.252 171.932 186.439 171.598C187.558 171.304 188.503 170.56 189.65 170.158C190.62 169.768 191.643 169.624 192.531 169.097C193.42 168.57 194.43 168.249 195.36 167.791C197.327 166.902 199.36 166.436 201.328 165.548C201.533 165.426 201.685 165.059 201.931 165.006C202.244 164.912 202.599 164.887 202.885 164.902C203.171 164.917 203.485 164.824 203.771 164.839C203.65 164.634 203.637 164.457 203.597 164.388C203.556 164.32 203.584 164.211 203.584 164.211C204.554 163.821 205.172 162.993 205.911 162.37C205.01 162.72 204.283 163.52 203.465 163.543C202.402 163.618 201.756 164.555 201.006 164.537C199.862 164.477 199.312 165.264 198.479 165.573C197.96 165.788 197.102 165.742 196.813 166.191C196.525 166.639 196.279 166.692 195.76 166.907C194.886 167.147 193.835 167.401 193.083 167.846C191.169 168.98 189.093 169.841 186.923 170.388C185.312 170.788 183.715 171.365 182.076 171.874C180.438 172.382 178.815 172.605 177.177 173.114C174.979 173.77 172.728 174.18 170.53 174.835C169.097 175.223 167.542 175.405 166 175.764C164.567 176.151 163.134 176.539 161.688 176.749C160.243 176.959 158.837 177.237 157.364 177.556C156.518 177.688 155.508 178.009 154.183 178.424ZM159.145 188.046C159.472 188.13 159.799 188.214 160.153 188.188C162.103 188.049 163.999 187.664 165.961 187.703C166.888 187.708 167.79 187.358 168.663 187.118C169.468 186.918 170.544 187.019 171.188 186.546C171.927 185.923 173.216 187.007 173.55 185.7C175.295 185.683 176.811 184.969 178.462 184.637C179.554 184.453 180.536 184.24 181.546 183.918C182.557 183.597 183.716 183.372 184.577 182.954C185.438 182.536 186.732 182.693 187.365 181.579C187.489 181.321 188.58 181.136 188.811 181.369C189.502 182.068 189.694 181.769 189.93 181.076C190.991 181.463 191.53 180.035 192.619 180.314C193.163 180.453 193.779 180.088 194.366 179.833C194.885 179.618 194.969 179.291 194.48 178.934C193.824 179.23 193.181 179.704 192.609 179.673C191.86 179.655 191.363 180.688 190.399 180.152C189.95 179.863 189.414 180.827 188.775 180.374C188.667 180.346 188.393 180.508 188.216 180.521C185.555 181.174 182.959 182.25 180.285 182.726C179.303 182.938 178.374 183.397 177.351 183.541C176.465 183.604 175.563 183.953 174.649 184.126C173.626 184.27 172.725 184.619 171.714 184.941C167.552 186.021 163.323 186.679 159.145 188.046ZM122.309 104.203C122.651 104.001 122.924 103.839 123.197 103.677C122.858 103.416 122.559 103.224 121.949 102.661C123.311 102.778 124.101 102.864 125.069 102.938C124.808 103.277 124.438 103.588 124.519 103.725C124.681 103.999 124.98 104.191 125.238 104.315C125.577 104.576 126.236 103.816 126.436 104.622C127.104 104.503 127.947 104.834 128.497 104.047C128.363 103.665 128.256 103.173 128.15 102.682C129.647 103.181 129.647 103.181 131.584 102.865C131.761 102.852 131.829 102.812 131.938 102.839C132.837 102.953 132.837 102.953 133.032 102.191C130.662 101.933 130.662 101.933 129.241 102.497C129.188 102.252 129.49 101.981 128.973 101.733C128.307 101.388 127.932 102.626 127.269 101.819C126.727 101.216 126.244 102.426 125.768 102.246C125.633 101.864 125.568 101.441 125.337 101.208C125.107 100.975 124.671 100.864 124.631 100.796C124.124 101.188 123.714 101.431 123.276 101.783C122.993 101.304 122.831 101.031 122.871 101.099C121.633 100.724 120.878 101.633 119.83 101.423C119.721 101.395 119.529 101.694 119.255 101.856C119.595 102.117 119.893 102.309 120.164 102.611C120 102.8 119.807 103.099 119.643 103.289C119.832 103.454 120.063 103.687 120.24 103.674C120.964 103.337 121.671 103.75 122.309 104.203ZM140.802 111.72C140.503 111.527 140.204 111.335 139.918 111.32C139.197 111.193 138.379 111.216 137.685 110.98C136.08 110.454 134.388 110.717 132.727 110.408C132.224 110.337 131.646 111.233 131.188 110.304C130.955 110.534 130.735 110.942 130.421 111.035C129.998 111.101 129.537 110.635 129.031 111.028C128.826 111.149 128.729 111.299 128.633 111.448C128.605 111.557 128.727 111.762 128.767 111.83C128.876 111.858 129.053 111.846 129.19 111.765C129.327 111.684 129.491 111.494 129.56 111.453C131.003 111.706 132.477 111.388 133.864 111.859C134.667 112.122 135.594 112.127 136.48 112.064C137.189 112.013 137.68 111.907 138.318 112.36C138.996 112.882 140.032 112.915 140.802 111.72Z" fill="#333333"/>
</svg>
