<svg width="133" height="38" viewBox="0 0 133 38" fill="none" xmlns="http://www.w3.org/2000/svg">
<rect width="38" height="38" rx="19" fill="black"/>
<path d="M13.7618 28.788C12.3999 28.788 11.1923 28.5434 10.1391 28.0543C9.10405 27.5652 8.28691 26.7952 7.68767 25.7445C7.10659 24.6756 6.81605 23.2716 6.81605 21.5324V18.5976C6.81605 17.5831 6.81605 16.5595 6.81605 15.5269C6.81605 14.4943 6.80697 13.4526 6.78881 12.4018C6.78881 11.6953 6.45288 11.2515 5.781 11.0703L5.18176 10.9344V10.3638H12.5361V10.9344L11.7734 11.0975C11.0834 11.2605 10.7383 11.7134 10.7383 12.4562C10.7202 13.4707 10.7111 14.4943 10.7111 15.5269C10.7111 16.5414 10.7111 17.565 10.7111 18.5976V22.0488C10.7111 23.806 11.0652 25.0742 11.7734 25.8532C12.4997 26.6322 13.5257 27.0217 14.8513 27.0217C16.2495 27.0217 17.339 26.605 18.1199 25.7717C18.9189 24.9202 19.3183 23.6611 19.3183 21.9944V12.5377C19.3183 12.1754 19.2457 11.8584 19.1004 11.5866C18.9552 11.3149 18.7009 11.1428 18.3378 11.0703L17.6841 10.9344V10.3638H21.8787V10.9344L21.1161 11.0975C20.771 11.1699 20.535 11.333 20.4079 11.5866C20.2808 11.8402 20.2172 12.1482 20.2172 12.5105V21.8314C20.2172 24.0778 19.627 25.7988 18.4467 26.9945C17.2664 28.1902 15.7048 28.788 13.7618 28.788Z" fill="white"/>
<path d="M13.3022 28.788L14.4538 28.2027L17.2727 27.0607C17.6596 26.9121 18.0073 26.7266 18.1363 26.485C18.2837 26.2434 18.4242 26.0302 18.4242 25.6213C18.9999 24.4698 19.373 24.384 19.373 23.3248C19.373 22.2471 19.373 21.1693 19.373 20.0915V19.0881C19.373 18.0103 19.3638 16.9419 19.3454 15.8827C19.3454 14.8049 19.3454 13.7271 19.3454 12.6494C19.3454 12.2034 19.2809 11.8689 19.1519 11.6459C19.023 11.4044 18.7558 11.2185 18.3505 11.0885L17.9083 10.9491V10.3638H25.7018C27.9127 10.3638 29.5156 10.7819 30.5105 11.6181C31.5054 12.4357 32.0029 13.4763 32.0029 14.7399C32.0029 15.7061 31.6528 16.5795 30.9527 17.36C30.2526 18.1218 29.0273 18.67 27.277 19.0045C29.3037 19.2275 30.7684 19.7571 31.6712 20.5933C32.574 21.4295 33.0254 22.4515 33.0254 23.6593C33.0254 24.254 32.8964 24.8579 32.6385 25.4711C32.3806 26.0657 31.9384 26.6139 31.3119 27.1156C30.7039 27.6173 29.8749 28.0261 28.8247 28.342C27.7745 28.6394 26.4479 28.788 24.845 28.788H13.3022ZM23.2974 18.8094H24.5963C25.8492 18.8094 26.7519 18.5306 27.3047 17.9732C27.8758 17.3971 28.1614 16.4216 28.1614 15.0465C28.1614 13.6157 27.9035 12.6122 27.3876 12.0362C26.8717 11.4601 26.061 11.1721 24.9556 11.1721H23.2974V18.8094ZM23.2974 27.9797H24.8174C26.1992 27.9797 27.231 27.6359 27.9127 26.9484C28.5944 26.2608 28.9352 25.1552 28.9352 23.6315C28.9352 22.1635 28.6036 21.1321 27.9403 20.5375C27.2955 19.9243 26.2269 19.6177 24.7345 19.6177H23.2974V27.9797Z" fill="white"/>
<path d="M24.4697 19.6159C23.894 19.6159 24.1818 20.4392 24.1818 20.4392H27.3485L31.3788 19.8634L29.9394 18.9998C29.9394 18.9998 27.6022 18.9233 27.2967 18.9998C27.2967 18.9998 25.0455 19.6159 24.4697 19.6159Z" fill="black"/>
<path d="M55.2791 26.692C54.3038 26.692 53.4235 26.502 52.6381 26.122C51.8528 25.7294 51.2258 25.1404 50.7571 24.355C50.3011 23.5697 50.0731 22.5754 50.0731 21.372V13.164H52.5051V21.391C52.5051 22.4297 52.7521 23.2024 53.2461 23.709C53.7528 24.2157 54.4495 24.469 55.3361 24.469C56.2101 24.469 56.9005 24.2157 57.4071 23.709C57.9138 23.2024 58.1671 22.4297 58.1671 21.391V13.164H60.5991V21.372C60.5991 22.5754 60.3585 23.5697 59.8771 24.355C59.3958 25.1404 58.7498 25.7294 57.9391 26.122C57.1411 26.502 56.2545 26.692 55.2791 26.692Z" fill="black"/>
<path d="M68.4017 26.464V13.164H73.3227C74.3867 13.164 75.2671 13.3414 75.9637 13.696C76.6604 14.0507 77.1797 14.5384 77.5217 15.159C77.8637 15.7797 78.0347 16.4764 78.0347 17.249C78.0347 17.9837 77.8701 18.6614 77.5407 19.282C77.2114 19.89 76.6984 20.384 76.0017 20.764C75.3051 21.1314 74.4121 21.315 73.3227 21.315H70.8337V26.464H68.4017ZM70.8337 19.339H73.1707C74.0194 19.339 74.6274 19.1554 74.9947 18.788C75.3747 18.408 75.5647 17.895 75.5647 17.249C75.5647 16.5904 75.3747 16.0774 74.9947 15.71C74.6274 15.33 74.0194 15.14 73.1707 15.14H70.8337V19.339Z" fill="black"/>
<path d="M85.2628 26.464V13.164H90.6018C91.9824 13.164 93.0338 13.487 93.7558 14.133C94.4904 14.7664 94.8578 15.5834 94.8578 16.584C94.8578 17.42 94.6298 18.0914 94.1738 18.598C93.7304 19.092 93.1858 19.4277 92.5398 19.605C93.2998 19.757 93.9268 20.137 94.4208 20.745C94.9148 21.3404 95.1618 22.037 95.1618 22.835C95.1618 23.8864 94.7818 24.754 94.0218 25.438C93.2618 26.122 92.1851 26.464 90.7918 26.464H85.2628ZM87.6948 18.75H90.2408C90.9248 18.75 91.4504 18.5917 91.8178 18.275C92.1851 17.9584 92.3688 17.5087 92.3688 16.926C92.3688 16.3687 92.1851 15.9317 91.8178 15.615C91.4631 15.2857 90.9248 15.121 90.2028 15.121H87.6948V18.75ZM87.6948 24.488H90.4118C91.1338 24.488 91.6911 24.3234 92.0838 23.994C92.4891 23.652 92.6918 23.177 92.6918 22.569C92.6918 21.9484 92.4828 21.4607 92.0648 21.106C91.6468 20.7514 91.0831 20.574 90.3738 20.574H87.6948V24.488Z" fill="black"/>
<path d="M108.801 26.692C107.471 26.692 106.306 26.4007 105.305 25.818C104.317 25.2354 103.538 24.431 102.968 23.405C102.411 22.3664 102.132 21.1694 102.132 19.814C102.132 18.4587 102.411 17.268 102.968 16.242C103.538 15.2034 104.317 14.3927 105.305 13.81C106.306 13.2274 107.471 12.936 108.801 12.936C110.118 12.936 111.277 13.2274 112.278 13.81C113.279 14.3927 114.058 15.2034 114.615 16.242C115.172 17.268 115.451 18.4587 115.451 19.814C115.451 21.1694 115.172 22.3664 114.615 23.405C114.058 24.431 113.279 25.2354 112.278 25.818C111.277 26.4007 110.118 26.692 108.801 26.692ZM108.801 24.507C110.068 24.507 111.075 24.089 111.822 23.253C112.582 22.417 112.962 21.2707 112.962 19.814C112.962 18.3574 112.582 17.211 111.822 16.375C111.075 15.539 110.068 15.121 108.801 15.121C107.534 15.121 106.521 15.539 105.761 16.375C105.001 17.211 104.621 18.3574 104.621 19.814C104.621 21.2707 105.001 22.417 105.761 23.253C106.521 24.089 107.534 24.507 108.801 24.507Z" fill="black"/>
<path d="M121.308 26.464L125.469 19.738L121.251 13.164H124.044L127.027 17.8L129.763 13.164H132.499L128.338 19.852L132.594 26.464H129.801L126.78 21.771L124.044 26.464H121.308Z" fill="black"/>
</svg>
